<mxfile host="65bd71144e">
    <diagram id="yhgnN3AJSD1NVw2KGV9G" name="Page-1">
        <mxGraphModel dx="-204" dy="520" grid="1" gridSize="10" guides="1" tooltips="1" connect="1" arrows="1" fold="1" page="1" pageScale="1" pageWidth="1169" pageHeight="827" math="0" shadow="0">
            <root>
                <mxCell id="0"/>
                <mxCell id="1" parent="0"/>
                <mxCell id="51" value="Seguimientos" style="rounded=0;whiteSpace=wrap;html=1;" vertex="1" parent="1">
                    <mxGeometry x="1400" y="160" width="120" height="40" as="geometry"/>
                </mxCell>
                <mxCell id="52" value="id" style="ellipse;whiteSpace=wrap;html=1;" vertex="1" parent="1">
                    <mxGeometry x="1200" y="40" width="110" height="40" as="geometry"/>
                </mxCell>
                <mxCell id="55" value="estado_id" style="ellipse;whiteSpace=wrap;html=1;" vertex="1" parent="1">
                    <mxGeometry x="1330" y="40" width="110" height="40" as="geometry"/>
                </mxCell>
                <mxCell id="56" value="entrevista_id" style="ellipse;whiteSpace=wrap;html=1;" vertex="1" parent="1">
                    <mxGeometry x="1460" y="40" width="110" height="40" as="geometry"/>
                </mxCell>
                <mxCell id="57" value="seguimiento_tipo_id" style="ellipse;whiteSpace=wrap;html=1;" vertex="1" parent="1">
                    <mxGeometry x="1200" y="220" width="110" height="40" as="geometry"/>
                </mxCell>
                <mxCell id="58" value="orientador_id" style="ellipse;whiteSpace=wrap;html=1;" vertex="1" parent="1">
                    <mxGeometry x="1200" y="100" width="110" height="40" as="geometry"/>
                </mxCell>
                <mxCell id="59" value="derivador_id" style="ellipse;whiteSpace=wrap;html=1;" vertex="1" parent="1">
                    <mxGeometry x="1200" y="160" width="110" height="40" as="geometry"/>
                </mxCell>
                <mxCell id="60" value="acompaniado_id" style="ellipse;whiteSpace=wrap;html=1;" vertex="1" parent="1">
                    <mxGeometry x="1200" y="280" width="110" height="40" as="geometry"/>
                </mxCell>
                <mxCell id="61" value="categoria_id" style="ellipse;whiteSpace=wrap;html=1;" vertex="1" parent="1">
                    <mxGeometry x="1590" y="40" width="120" height="40" as="geometry"/>
                </mxCell>
                <mxCell id="65" value="" style="endArrow=none;html=1;entryX=1;entryY=1;entryDx=0;entryDy=0;exitX=0;exitY=0;exitDx=0;exitDy=0;" edge="1" parent="1" source="51" target="52">
                    <mxGeometry width="50" height="50" relative="1" as="geometry">
                        <mxPoint x="1400" y="370" as="sourcePoint"/>
                        <mxPoint x="1450" y="320" as="targetPoint"/>
                    </mxGeometry>
                </mxCell>
                <mxCell id="67" value="" style="endArrow=none;html=1;exitX=1;exitY=0.5;exitDx=0;exitDy=0;" edge="1" parent="1" source="58">
                    <mxGeometry width="50" height="50" relative="1" as="geometry">
                        <mxPoint x="1420" y="310" as="sourcePoint"/>
                        <mxPoint x="1400" y="160" as="targetPoint"/>
                    </mxGeometry>
                </mxCell>
                <mxCell id="68" value="" style="endArrow=none;html=1;exitX=1;exitY=0.5;exitDx=0;exitDy=0;entryX=0;entryY=0;entryDx=0;entryDy=0;" edge="1" parent="1" source="59" target="51">
                    <mxGeometry width="50" height="50" relative="1" as="geometry">
                        <mxPoint x="1430" y="330" as="sourcePoint"/>
                        <mxPoint x="1480" y="280" as="targetPoint"/>
                    </mxGeometry>
                </mxCell>
                <mxCell id="71" value="" style="endArrow=none;html=1;exitX=1;exitY=0.5;exitDx=0;exitDy=0;entryX=0;entryY=0;entryDx=0;entryDy=0;" edge="1" parent="1" source="57" target="51">
                    <mxGeometry width="50" height="50" relative="1" as="geometry">
                        <mxPoint x="1430" y="290" as="sourcePoint"/>
                        <mxPoint x="1480" y="240" as="targetPoint"/>
                    </mxGeometry>
                </mxCell>
                <mxCell id="72" value="" style="endArrow=none;html=1;exitX=1;exitY=0.5;exitDx=0;exitDy=0;entryX=0;entryY=0;entryDx=0;entryDy=0;" edge="1" parent="1" source="60" target="51">
                    <mxGeometry width="50" height="50" relative="1" as="geometry">
                        <mxPoint x="1520" y="350" as="sourcePoint"/>
                        <mxPoint x="1570" y="300" as="targetPoint"/>
                    </mxGeometry>
                </mxCell>
                <mxCell id="73" value="" style="endArrow=none;html=1;exitX=0.5;exitY=1;exitDx=0;exitDy=0;entryX=0;entryY=0.25;entryDx=0;entryDy=0;entryPerimeter=0;" edge="1" parent="1" source="55" target="51">
                    <mxGeometry width="50" height="50" relative="1" as="geometry">
                        <mxPoint x="1590" y="210" as="sourcePoint"/>
                        <mxPoint x="1640" y="160" as="targetPoint"/>
                    </mxGeometry>
                </mxCell>
                <mxCell id="74" value="" style="endArrow=none;html=1;exitX=0.5;exitY=1;exitDx=0;exitDy=0;" edge="1" parent="1" source="56">
                    <mxGeometry width="50" height="50" relative="1" as="geometry">
                        <mxPoint x="1760" y="200" as="sourcePoint"/>
                        <mxPoint x="1400" y="160" as="targetPoint"/>
                    </mxGeometry>
                </mxCell>
                <mxCell id="75" value="" style="endArrow=none;html=1;entryX=0.5;entryY=1;entryDx=0;entryDy=0;" edge="1" parent="1" target="61">
                    <mxGeometry width="50" height="50" relative="1" as="geometry">
                        <mxPoint x="1400" y="160" as="sourcePoint"/>
                        <mxPoint x="1650" y="130" as="targetPoint"/>
                    </mxGeometry>
                </mxCell>
                <mxCell id="77" value="Estados" style="rounded=0;whiteSpace=wrap;html=1;" vertex="1" parent="1">
                    <mxGeometry x="1800" y="220" width="120" height="40" as="geometry"/>
                </mxCell>
                <mxCell id="78" value="Tiene" style="rhombus;whiteSpace=wrap;html=1;" vertex="1" parent="1">
                    <mxGeometry x="1600" y="220" width="120" height="40" as="geometry"/>
                </mxCell>
                <mxCell id="79" value="" style="endArrow=none;html=1;entryX=0;entryY=0.5;entryDx=0;entryDy=0;exitX=1;exitY=0.5;exitDx=0;exitDy=0;" edge="1" parent="1" source="78" target="77">
                    <mxGeometry width="50" height="50" relative="1" as="geometry">
                        <mxPoint x="2080" y="250" as="sourcePoint"/>
                        <mxPoint x="2130" y="200" as="targetPoint"/>
                    </mxGeometry>
                </mxCell>
                <mxCell id="80" value="" style="endArrow=none;html=1;entryX=0;entryY=0.5;entryDx=0;entryDy=0;exitX=1;exitY=0.5;exitDx=0;exitDy=0;" edge="1" parent="1" source="51" target="78">
                    <mxGeometry width="50" height="50" relative="1" as="geometry">
                        <mxPoint x="1940" y="270" as="sourcePoint"/>
                        <mxPoint x="1990" y="220" as="targetPoint"/>
                    </mxGeometry>
                </mxCell>
                <mxCell id="83" value="Categorias" style="rounded=0;whiteSpace=wrap;html=1;" vertex="1" parent="1">
                    <mxGeometry x="2200" y="80" width="120" height="40" as="geometry"/>
                </mxCell>
                <mxCell id="84" value="" style="endArrow=none;html=1;exitX=1;exitY=0.5;exitDx=0;exitDy=0;entryX=0.095;entryY=0.489;entryDx=0;entryDy=0;entryPerimeter=0;" edge="1" parent="1" source="51" target="85">
                    <mxGeometry width="50" height="50" relative="1" as="geometry">
                        <mxPoint x="1460" y="450" as="sourcePoint"/>
                        <mxPoint x="1830" y="230" as="targetPoint"/>
                        <Array as="points">
                            <mxPoint x="1800" y="100"/>
                        </Array>
                    </mxGeometry>
                </mxCell>
                <mxCell id="85" value="Tiene" style="rhombus;whiteSpace=wrap;html=1;" vertex="1" parent="1">
                    <mxGeometry x="1890" y="80" width="120" height="40" as="geometry"/>
                </mxCell>
                <mxCell id="87" value="" style="endArrow=none;html=1;exitX=1;exitY=0.5;exitDx=0;exitDy=0;entryX=0;entryY=0.5;entryDx=0;entryDy=0;" edge="1" parent="1" source="85" target="83">
                    <mxGeometry width="50" height="50" relative="1" as="geometry">
                        <mxPoint x="1890" y="500" as="sourcePoint"/>
                        <mxPoint x="1940" y="450" as="targetPoint"/>
                    </mxGeometry>
                </mxCell>
                <mxCell id="88" value="Colores" style="rounded=0;whiteSpace=wrap;html=1;" vertex="1" parent="1">
                    <mxGeometry x="2200" y="220" width="120" height="40" as="geometry"/>
                </mxCell>
                <mxCell id="89" value="Tiene" style="rhombus;whiteSpace=wrap;html=1;" vertex="1" parent="1">
                    <mxGeometry x="2000" y="220" width="120" height="40" as="geometry"/>
                </mxCell>
                <mxCell id="92" value="" style="endArrow=none;html=1;exitX=1;exitY=0.5;exitDx=0;exitDy=0;entryX=0;entryY=0.5;entryDx=0;entryDy=0;" edge="1" parent="1" source="77" target="89">
                    <mxGeometry width="50" height="50" relative="1" as="geometry">
                        <mxPoint x="2060" y="400" as="sourcePoint"/>
                        <mxPoint x="2110" y="350" as="targetPoint"/>
                    </mxGeometry>
                </mxCell>
                <mxCell id="93" value="" style="endArrow=none;html=1;exitX=1;exitY=0.5;exitDx=0;exitDy=0;entryX=0;entryY=0.5;entryDx=0;entryDy=0;" edge="1" parent="1" source="89" target="88">
                    <mxGeometry width="50" height="50" relative="1" as="geometry">
                        <mxPoint x="1980" y="470" as="sourcePoint"/>
                        <mxPoint x="2030" y="420" as="targetPoint"/>
                    </mxGeometry>
                </mxCell>
                <mxCell id="94" value="seguimiento_tipos" style="rounded=0;whiteSpace=wrap;html=1;" vertex="1" parent="1">
                    <mxGeometry x="2200" y="360" width="120" height="40" as="geometry"/>
                </mxCell>
                <mxCell id="95" value="Tiene" style="rhombus;whiteSpace=wrap;html=1;" vertex="1" parent="1">
                    <mxGeometry x="2000" y="360" width="120" height="40" as="geometry"/>
                </mxCell>
                <mxCell id="96" value="" style="endArrow=none;html=1;fontColor=#000000;exitX=1;exitY=0.5;exitDx=0;exitDy=0;entryX=0;entryY=0.5;entryDx=0;entryDy=0;" edge="1" parent="1" source="51" target="95">
                    <mxGeometry width="50" height="50" relative="1" as="geometry">
                        <mxPoint x="1590" y="280" as="sourcePoint"/>
                        <mxPoint x="1730" y="420" as="targetPoint"/>
                        <Array as="points">
                            <mxPoint x="1570" y="300"/>
                        </Array>
                    </mxGeometry>
                </mxCell>
                <mxCell id="97" value="" style="endArrow=none;html=1;fontColor=#000000;exitX=1;exitY=0.5;exitDx=0;exitDy=0;entryX=0;entryY=0.5;entryDx=0;entryDy=0;" edge="1" parent="1" source="95" target="94">
                    <mxGeometry width="50" height="50" relative="1" as="geometry">
                        <mxPoint x="1980" y="510" as="sourcePoint"/>
                        <mxPoint x="2030" y="460" as="targetPoint"/>
                    </mxGeometry>
                </mxCell>
                <mxCell id="98" value="Entrevistas" style="rounded=0;whiteSpace=wrap;html=1;" vertex="1" parent="1">
                    <mxGeometry x="1360" y="680" width="120" height="40" as="geometry"/>
                </mxCell>
                <mxCell id="99" value="Usuarios" style="rounded=0;whiteSpace=wrap;html=1;" vertex="1" parent="1">
                    <mxGeometry x="2040" y="680" width="120" height="40" as="geometry"/>
                </mxCell>
                <mxCell id="100" value="Tiene" style="rhombus;whiteSpace=wrap;html=1;" vertex="1" parent="1">
                    <mxGeometry x="1200" y="480" width="120" height="40" as="geometry"/>
                </mxCell>
                <mxCell id="101" value="Tiene" style="rhombus;whiteSpace=wrap;html=1;" vertex="1" parent="1">
                    <mxGeometry x="1780" y="640" width="120" height="40" as="geometry"/>
                </mxCell>
                <mxCell id="102" value="id" style="ellipse;whiteSpace=wrap;html=1;" vertex="1" parent="1">
                    <mxGeometry x="1200" y="700" width="110" height="40" as="geometry"/>
                </mxCell>
                <mxCell id="103" value="observaciones" style="ellipse;whiteSpace=wrap;html=1;" vertex="1" parent="1">
                    <mxGeometry x="1200" y="760" width="110" height="40" as="geometry"/>
                </mxCell>
                <mxCell id="104" value="acciones" style="ellipse;whiteSpace=wrap;html=1;" vertex="1" parent="1">
                    <mxGeometry x="1340" y="760" width="110" height="40" as="geometry"/>
                </mxCell>
                <mxCell id="106" value="id" style="ellipse;whiteSpace=wrap;html=1;" vertex="1" parent="1">
                    <mxGeometry x="2210" y="760" width="110" height="40" as="geometry"/>
                </mxCell>
                <mxCell id="107" value="documento_numero" style="ellipse;whiteSpace=wrap;html=1;" vertex="1" parent="1">
                    <mxGeometry x="2080" y="760" width="110" height="40" as="geometry"/>
                </mxCell>
                <mxCell id="108" value="documento_tipo" style="ellipse;whiteSpace=wrap;html=1;" vertex="1" parent="1">
                    <mxGeometry x="1950" y="760" width="110" height="40" as="geometry"/>
                </mxCell>
                <mxCell id="109" value="nombres" style="ellipse;whiteSpace=wrap;html=1;" vertex="1" parent="1">
                    <mxGeometry x="2210" y="700" width="110" height="40" as="geometry"/>
                </mxCell>
                <mxCell id="110" value="apellidos" style="ellipse;whiteSpace=wrap;html=1;" vertex="1" parent="1">
                    <mxGeometry x="2210" y="640" width="110" height="40" as="geometry"/>
                </mxCell>
                <mxCell id="111" value="apellidos" style="ellipse;whiteSpace=wrap;html=1;" vertex="1" parent="1">
                    <mxGeometry x="2210" y="580" width="110" height="40" as="geometry"/>
                </mxCell>
                <mxCell id="112" value="celular" style="ellipse;whiteSpace=wrap;html=1;" vertex="1" parent="1">
                    <mxGeometry x="2210" y="520" width="110" height="40" as="geometry"/>
                </mxCell>
                <mxCell id="113" value="telefono" style="ellipse;whiteSpace=wrap;html=1;" vertex="1" parent="1">
                    <mxGeometry x="2080" y="520" width="110" height="40" as="geometry"/>
                </mxCell>
                <mxCell id="114" value="email" style="ellipse;whiteSpace=wrap;html=1;" vertex="1" parent="1">
                    <mxGeometry x="1950" y="520" width="110" height="40" as="geometry"/>
                </mxCell>
                <mxCell id="115" value="categoría" style="ellipse;whiteSpace=wrap;html=1;" vertex="1" parent="1">
                    <mxGeometry x="1820" y="760" width="110" height="40" as="geometry"/>
                </mxCell>
                <mxCell id="117" value="Tiene" style="rhombus;whiteSpace=wrap;html=1;" vertex="1" parent="1">
                    <mxGeometry x="1400" y="460" width="120" height="40" as="geometry"/>
                </mxCell>
                <mxCell id="118" value="documento_tipos" style="rounded=0;whiteSpace=wrap;html=1;" vertex="1" parent="1">
                    <mxGeometry x="1580" y="680" width="120" height="40" as="geometry"/>
                </mxCell>
                <mxCell id="119" value="id" style="ellipse;whiteSpace=wrap;html=1;" vertex="1" parent="1">
                    <mxGeometry x="1520" y="760" width="110" height="40" as="geometry"/>
                </mxCell>
                <mxCell id="120" value="documento_tipo" style="ellipse;whiteSpace=wrap;html=1;" vertex="1" parent="1">
                    <mxGeometry x="1650" y="760" width="110" height="40" as="geometry"/>
                </mxCell>
                <mxCell id="121" value="" style="endArrow=none;html=1;fontColor=#000000;exitX=1;exitY=0.5;exitDx=0;exitDy=0;entryX=0;entryY=1;entryDx=0;entryDy=0;" edge="1" parent="1" source="102" target="98">
                    <mxGeometry width="50" height="50" relative="1" as="geometry">
                        <mxPoint x="1350" y="690" as="sourcePoint"/>
                        <mxPoint x="1400" y="640" as="targetPoint"/>
                    </mxGeometry>
                </mxCell>
                <mxCell id="122" value="" style="endArrow=none;html=1;fontColor=#000000;exitX=1;exitY=0.5;exitDx=0;exitDy=0;entryX=0;entryY=1;entryDx=0;entryDy=0;" edge="1" parent="1" source="103" target="98">
                    <mxGeometry width="50" height="50" relative="1" as="geometry">
                        <mxPoint x="1340" y="690" as="sourcePoint"/>
                        <mxPoint x="1390" y="640" as="targetPoint"/>
                    </mxGeometry>
                </mxCell>
                <mxCell id="123" value="" style="endArrow=none;html=1;fontColor=#000000;exitX=0.5;exitY=0;exitDx=0;exitDy=0;" edge="1" parent="1" source="104">
                    <mxGeometry width="50" height="50" relative="1" as="geometry">
                        <mxPoint x="1440" y="780" as="sourcePoint"/>
                        <mxPoint x="1360" y="720" as="targetPoint"/>
                    </mxGeometry>
                </mxCell>
                <mxCell id="124" value="" style="endArrow=none;html=1;fontColor=#000000;exitX=0.5;exitY=0;exitDx=0;exitDy=0;entryX=0.5;entryY=1;entryDx=0;entryDy=0;" edge="1" parent="1" source="119" target="118">
                    <mxGeometry width="50" height="50" relative="1" as="geometry">
                        <mxPoint x="1580" y="640" as="sourcePoint"/>
                        <mxPoint x="1630" y="590" as="targetPoint"/>
                    </mxGeometry>
                </mxCell>
                <mxCell id="125" value="" style="endArrow=none;html=1;fontColor=#000000;exitX=0.5;exitY=0;exitDx=0;exitDy=0;entryX=0.5;entryY=1;entryDx=0;entryDy=0;" edge="1" parent="1" source="120" target="118">
                    <mxGeometry width="50" height="50" relative="1" as="geometry">
                        <mxPoint x="1810" y="670" as="sourcePoint"/>
                        <mxPoint x="1860" y="620" as="targetPoint"/>
                    </mxGeometry>
                </mxCell>
                <mxCell id="126" value="" style="endArrow=none;html=1;fontColor=#000000;exitX=0;exitY=0;exitDx=0;exitDy=0;" edge="1" parent="1" source="106">
                    <mxGeometry width="50" height="50" relative="1" as="geometry">
                        <mxPoint x="1940" y="660" as="sourcePoint"/>
                        <mxPoint x="2160" y="720" as="targetPoint"/>
                    </mxGeometry>
                </mxCell>
                <mxCell id="127" value="" style="endArrow=none;html=1;fontColor=#000000;exitX=1;exitY=0;exitDx=0;exitDy=0;" edge="1" parent="1" source="115">
                    <mxGeometry width="50" height="50" relative="1" as="geometry">
                        <mxPoint x="1920" y="720" as="sourcePoint"/>
                        <mxPoint x="2160" y="720" as="targetPoint"/>
                        <Array as="points">
                            <mxPoint x="1960" y="740"/>
                        </Array>
                    </mxGeometry>
                </mxCell>
                <mxCell id="128" value="" style="endArrow=none;html=1;fontColor=#000000;" edge="1" parent="1" source="108">
                    <mxGeometry width="50" height="50" relative="1" as="geometry">
                        <mxPoint x="2150" y="790" as="sourcePoint"/>
                        <mxPoint x="2160" y="720" as="targetPoint"/>
                        <Array as="points">
                            <mxPoint x="2060" y="750"/>
                        </Array>
                    </mxGeometry>
                </mxCell>
                <mxCell id="129" value="" style="endArrow=none;html=1;fontColor=#000000;exitX=0.5;exitY=0;exitDx=0;exitDy=0;" edge="1" parent="1" source="107">
                    <mxGeometry width="50" height="50" relative="1" as="geometry">
                        <mxPoint x="2180" y="860" as="sourcePoint"/>
                        <mxPoint x="2160" y="720" as="targetPoint"/>
                    </mxGeometry>
                </mxCell>
                <mxCell id="133" value="" style="endArrow=none;html=1;fontColor=#000000;entryX=0;entryY=0.5;entryDx=0;entryDy=0;" edge="1" parent="1" target="109">
                    <mxGeometry width="50" height="50" relative="1" as="geometry">
                        <mxPoint x="2160" y="720" as="sourcePoint"/>
                        <mxPoint x="2260" y="700" as="targetPoint"/>
                    </mxGeometry>
                </mxCell>
                <mxCell id="137" value="" style="endArrow=none;html=1;fontColor=#000000;entryX=0.5;entryY=1;entryDx=0;entryDy=0;exitX=1;exitY=0;exitDx=0;exitDy=0;" edge="1" parent="1" source="99" target="114">
                    <mxGeometry width="50" height="50" relative="1" as="geometry">
                        <mxPoint x="1840" y="650" as="sourcePoint"/>
                        <mxPoint x="1890" y="600" as="targetPoint"/>
                    </mxGeometry>
                </mxCell>
                <mxCell id="138" value="" style="endArrow=none;html=1;fontColor=#000000;entryX=0.5;entryY=1;entryDx=0;entryDy=0;exitX=1;exitY=0;exitDx=0;exitDy=0;" edge="1" parent="1" source="99" target="113">
                    <mxGeometry width="50" height="50" relative="1" as="geometry">
                        <mxPoint x="1890" y="690" as="sourcePoint"/>
                        <mxPoint x="1940" y="640" as="targetPoint"/>
                    </mxGeometry>
                </mxCell>
                <mxCell id="139" value="" style="endArrow=none;html=1;fontColor=#000000;entryX=0;entryY=0.5;entryDx=0;entryDy=0;" edge="1" parent="1" target="112">
                    <mxGeometry width="50" height="50" relative="1" as="geometry">
                        <mxPoint x="2160" y="680" as="sourcePoint"/>
                        <mxPoint x="2210" y="610" as="targetPoint"/>
                    </mxGeometry>
                </mxCell>
                <mxCell id="140" value="" style="endArrow=none;html=1;fontColor=#000000;entryX=0;entryY=0.5;entryDx=0;entryDy=0;exitX=1;exitY=0;exitDx=0;exitDy=0;" edge="1" parent="1" source="99" target="111">
                    <mxGeometry width="50" height="50" relative="1" as="geometry">
                        <mxPoint x="1930" y="710" as="sourcePoint"/>
                        <mxPoint x="1980" y="660" as="targetPoint"/>
                    </mxGeometry>
                </mxCell>
                <mxCell id="141" value="" style="endArrow=none;html=1;fontColor=#000000;entryX=0;entryY=0.5;entryDx=0;entryDy=0;exitX=1;exitY=0;exitDx=0;exitDy=0;" edge="1" parent="1" source="99" target="110">
                    <mxGeometry width="50" height="50" relative="1" as="geometry">
                        <mxPoint x="1890" y="680" as="sourcePoint"/>
                        <mxPoint x="1940" y="630" as="targetPoint"/>
                    </mxGeometry>
                </mxCell>
                <mxCell id="142" value="" style="endArrow=none;html=1;fontColor=#000000;entryX=0.5;entryY=0;entryDx=0;entryDy=0;exitX=0.5;exitY=1;exitDx=0;exitDy=0;" edge="1" parent="1" source="100" target="98">
                    <mxGeometry width="50" height="50" relative="1" as="geometry">
                        <mxPoint x="1310" y="630" as="sourcePoint"/>
                        <mxPoint x="1360" y="580" as="targetPoint"/>
                    </mxGeometry>
                </mxCell>
                <mxCell id="143" value="" style="endArrow=none;html=1;fontColor=#000000;exitX=0.5;exitY=0;exitDx=0;exitDy=0;entryX=0.5;entryY=1;entryDx=0;entryDy=0;" edge="1" parent="1" source="100" target="51">
                    <mxGeometry width="50" height="50" relative="1" as="geometry">
                        <mxPoint x="1340" y="410" as="sourcePoint"/>
                        <mxPoint x="1390" y="360" as="targetPoint"/>
                    </mxGeometry>
                </mxCell>
                <mxCell id="144" value="" style="endArrow=none;html=1;fontColor=#000000;exitX=0.5;exitY=0;exitDx=0;exitDy=0;entryX=0;entryY=0.5;entryDx=0;entryDy=0;" edge="1" parent="1" source="118" target="101">
                    <mxGeometry width="50" height="50" relative="1" as="geometry">
                        <mxPoint x="1710" y="600" as="sourcePoint"/>
                        <mxPoint x="1760" y="550" as="targetPoint"/>
                    </mxGeometry>
                </mxCell>
                <mxCell id="145" value="" style="endArrow=none;html=1;fontColor=#000000;entryX=0;entryY=0.5;entryDx=0;entryDy=0;exitX=1;exitY=0.5;exitDx=0;exitDy=0;" edge="1" parent="1" source="101" target="99">
                    <mxGeometry width="50" height="50" relative="1" as="geometry">
                        <mxPoint x="1610" y="560" as="sourcePoint"/>
                        <mxPoint x="1660" y="510" as="targetPoint"/>
                    </mxGeometry>
                </mxCell>
                <mxCell id="146" value="" style="endArrow=none;html=1;fontColor=#000000;entryX=0;entryY=0;entryDx=0;entryDy=0;exitX=0.5;exitY=1;exitDx=0;exitDy=0;" edge="1" parent="1" source="117" target="99">
                    <mxGeometry width="50" height="50" relative="1" as="geometry">
                        <mxPoint x="1540" y="480" as="sourcePoint"/>
                        <mxPoint x="1590" y="430" as="targetPoint"/>
                        <Array as="points">
                            <mxPoint x="1780" y="550"/>
                        </Array>
                    </mxGeometry>
                </mxCell>
                <mxCell id="147" value="" style="endArrow=none;html=1;fontColor=#000000;entryX=0.5;entryY=1;entryDx=0;entryDy=0;exitX=0.5;exitY=0;exitDx=0;exitDy=0;" edge="1" parent="1" source="117" target="51">
                    <mxGeometry width="50" height="50" relative="1" as="geometry">
                        <mxPoint x="1610" y="440" as="sourcePoint"/>
                        <mxPoint x="1660" y="390" as="targetPoint"/>
                    </mxGeometry>
                </mxCell>
                <mxCell id="148" value="seguimiento_tipo" style="ellipse;whiteSpace=wrap;html=1;" vertex="1" parent="1">
                    <mxGeometry x="2210" y="290" width="110" height="40" as="geometry"/>
                </mxCell>
                <mxCell id="149" value="id" style="ellipse;whiteSpace=wrap;html=1;" vertex="1" parent="1">
                    <mxGeometry x="2080" y="290" width="110" height="40" as="geometry"/>
                </mxCell>
                <mxCell id="150" value="" style="endArrow=none;html=1;fontColor=#000000;entryX=0.5;entryY=1;entryDx=0;entryDy=0;exitX=0.5;exitY=0;exitDx=0;exitDy=0;" edge="1" parent="1" source="94" target="149">
                    <mxGeometry width="50" height="50" relative="1" as="geometry">
                        <mxPoint x="2220" y="480" as="sourcePoint"/>
                        <mxPoint x="2270" y="430" as="targetPoint"/>
                    </mxGeometry>
                </mxCell>
                <mxCell id="151" value="" style="endArrow=none;html=1;fontColor=#000000;entryX=0.5;entryY=1;entryDx=0;entryDy=0;" edge="1" parent="1" source="94" target="148">
                    <mxGeometry width="50" height="50" relative="1" as="geometry">
                        <mxPoint x="2150" y="480" as="sourcePoint"/>
                        <mxPoint x="2200" y="430" as="targetPoint"/>
                    </mxGeometry>
                </mxCell>
                <mxCell id="152" value="id" style="ellipse;whiteSpace=wrap;html=1;" vertex="1" parent="1">
                    <mxGeometry x="2080" y="150" width="110" height="40" as="geometry"/>
                </mxCell>
                <mxCell id="153" value="color-rgba" style="ellipse;whiteSpace=wrap;html=1;" vertex="1" parent="1">
                    <mxGeometry x="2210" y="150" width="110" height="40" as="geometry"/>
                </mxCell>
                <mxCell id="154" value="" style="endArrow=none;html=1;fontColor=#000000;entryX=0.5;entryY=1;entryDx=0;entryDy=0;exitX=0.5;exitY=0;exitDx=0;exitDy=0;" edge="1" parent="1" source="88" target="152">
                    <mxGeometry width="50" height="50" relative="1" as="geometry">
                        <mxPoint x="2160" y="250" as="sourcePoint"/>
                        <mxPoint x="2210" y="200" as="targetPoint"/>
                    </mxGeometry>
                </mxCell>
                <mxCell id="155" value="" style="endArrow=none;html=1;fontColor=#000000;entryX=0.5;entryY=1;entryDx=0;entryDy=0;" edge="1" parent="1" source="88" target="153">
                    <mxGeometry width="50" height="50" relative="1" as="geometry">
                        <mxPoint x="2280" y="260" as="sourcePoint"/>
                        <mxPoint x="2330" y="210" as="targetPoint"/>
                    </mxGeometry>
                </mxCell>
                <mxCell id="156" value="categoria_id" style="ellipse;whiteSpace=wrap;html=1;" vertex="1" parent="1">
                    <mxGeometry x="2210" y="10" width="110" height="40" as="geometry"/>
                </mxCell>
                <mxCell id="157" value="seguimiento_motivo" style="ellipse;whiteSpace=wrap;html=1;" vertex="1" parent="1">
                    <mxGeometry x="1200" y="340" width="110" height="40" as="geometry"/>
                </mxCell>
                <mxCell id="158" value="" style="endArrow=none;html=1;fontColor=#000000;exitX=1;exitY=0.5;exitDx=0;exitDy=0;entryX=0;entryY=0;entryDx=0;entryDy=0;" edge="1" parent="1" source="157" target="51">
                    <mxGeometry width="50" height="50" relative="1" as="geometry">
                        <mxPoint x="1560" y="380" as="sourcePoint"/>
                        <mxPoint x="1610" y="330" as="targetPoint"/>
                    </mxGeometry>
                </mxCell>
                <mxCell id="159" value="id" style="ellipse;whiteSpace=wrap;html=1;" vertex="1" parent="1">
                    <mxGeometry x="2070" y="10" width="110" height="40" as="geometry"/>
                </mxCell>
                <mxCell id="161" value="" style="endArrow=none;html=1;fontColor=#000000;entryX=0.5;entryY=1;entryDx=0;entryDy=0;exitX=0.5;exitY=0;exitDx=0;exitDy=0;" edge="1" parent="1" source="83" target="159">
                    <mxGeometry width="50" height="50" relative="1" as="geometry">
                        <mxPoint x="2000" y="90" as="sourcePoint"/>
                        <mxPoint x="2050" y="40" as="targetPoint"/>
                    </mxGeometry>
                </mxCell>
                <mxCell id="162" value="" style="endArrow=none;html=1;fontColor=#000000;entryX=0.5;entryY=1;entryDx=0;entryDy=0;" edge="1" parent="1" source="83" target="156">
                    <mxGeometry width="50" height="50" relative="1" as="geometry">
                        <mxPoint x="2030" y="200" as="sourcePoint"/>
                        <mxPoint x="2080" y="150" as="targetPoint"/>
                    </mxGeometry>
                </mxCell>
                <mxCell id="163" value="genero" style="ellipse;whiteSpace=wrap;html=1;" vertex="1" parent="1">
                    <mxGeometry x="1820" y="520" width="110" height="40" as="geometry"/>
                </mxCell>
                <mxCell id="164" value="" style="endArrow=none;html=1;fontColor=#000000;exitX=0.5;exitY=1;exitDx=0;exitDy=0;entryX=1;entryY=0;entryDx=0;entryDy=0;" edge="1" parent="1" source="163" target="99">
                    <mxGeometry width="50" height="50" relative="1" as="geometry">
                        <mxPoint x="1980" y="640" as="sourcePoint"/>
                        <mxPoint x="2030" y="590" as="targetPoint"/>
                    </mxGeometry>
                </mxCell>
                <mxCell id="165" value="géneros" style="rounded=0;whiteSpace=wrap;html=1;" vertex="1" parent="1">
                    <mxGeometry x="1580" y="580" width="120" height="40" as="geometry"/>
                </mxCell>
                <mxCell id="167" value="id" style="ellipse;whiteSpace=wrap;html=1;" vertex="1" parent="1">
                    <mxGeometry x="1440" y="550" width="110" height="40" as="geometry"/>
                </mxCell>
                <mxCell id="168" value="genero_nombre" style="ellipse;whiteSpace=wrap;html=1;" vertex="1" parent="1">
                    <mxGeometry x="1440" y="610" width="110" height="40" as="geometry"/>
                </mxCell>
                <mxCell id="169" value="" style="endArrow=none;html=1;fontColor=#000000;entryX=1;entryY=0.5;entryDx=0;entryDy=0;exitX=0;exitY=0.5;exitDx=0;exitDy=0;" edge="1" parent="1" source="165" target="168">
                    <mxGeometry width="50" height="50" relative="1" as="geometry">
                        <mxPoint x="1570" y="600" as="sourcePoint"/>
                        <mxPoint x="1620" y="550" as="targetPoint"/>
                    </mxGeometry>
                </mxCell>
                <mxCell id="170" value="" style="endArrow=none;html=1;fontColor=#000000;exitX=1;exitY=0.5;exitDx=0;exitDy=0;entryX=0;entryY=0.5;entryDx=0;entryDy=0;" edge="1" parent="1" source="167" target="165">
                    <mxGeometry width="50" height="50" relative="1" as="geometry">
                        <mxPoint x="1630" y="600" as="sourcePoint"/>
                        <mxPoint x="1680" y="550" as="targetPoint"/>
                    </mxGeometry>
                </mxCell>
                <mxCell id="171" value="1:N" style="text;html=1;strokeColor=none;fillColor=none;align=center;verticalAlign=middle;whiteSpace=wrap;rounded=0;" vertex="1" parent="1">
                    <mxGeometry x="1330" y="490" width="40" height="20" as="geometry"/>
                </mxCell>
                <mxCell id="172" value="N : N" style="text;html=1;strokeColor=none;fillColor=none;align=center;verticalAlign=middle;whiteSpace=wrap;rounded=0;" vertex="1" parent="1">
                    <mxGeometry x="1530" y="470" width="40" height="20" as="geometry"/>
                </mxCell>
                <mxCell id="175" value="N:1" style="text;html=1;strokeColor=none;fillColor=none;align=center;verticalAlign=middle;whiteSpace=wrap;rounded=0;" vertex="1" parent="1">
                    <mxGeometry x="1710" y="260" width="40" height="20" as="geometry"/>
                </mxCell>
                <mxCell id="176" value="N-1" style="text;html=1;strokeColor=none;fillColor=none;align=center;verticalAlign=middle;whiteSpace=wrap;rounded=0;" vertex="1" parent="1">
                    <mxGeometry x="1820" y="690" width="40" height="20" as="geometry"/>
                </mxCell>
                <mxCell id="177" value="N-1" style="text;html=1;strokeColor=none;fillColor=none;align=center;verticalAlign=middle;whiteSpace=wrap;rounded=0;" vertex="1" parent="1">
                    <mxGeometry x="1740" y="580" width="40" height="20" as="geometry"/>
                </mxCell>
                <mxCell id="178" value="Tiene" style="rhombus;whiteSpace=wrap;html=1;" vertex="1" parent="1">
                    <mxGeometry x="1740" y="590" width="120" height="40" as="geometry"/>
                </mxCell>
                <mxCell id="179" value="" style="endArrow=none;html=1;fontColor=#f0f0f0;entryX=0;entryY=0.5;entryDx=0;entryDy=0;exitX=1;exitY=0.5;exitDx=0;exitDy=0;" edge="1" parent="1" source="165" target="178">
                    <mxGeometry width="50" height="50" relative="1" as="geometry">
                        <mxPoint x="1630" y="670" as="sourcePoint"/>
                        <mxPoint x="1680" y="620" as="targetPoint"/>
                    </mxGeometry>
                </mxCell>
                <mxCell id="180" value="" style="endArrow=none;html=1;fontColor=#f0f0f0;entryX=0;entryY=0;entryDx=0;entryDy=0;exitX=1;exitY=0.5;exitDx=0;exitDy=0;" edge="1" parent="1" source="178" target="99">
                    <mxGeometry width="50" height="50" relative="1" as="geometry">
                        <mxPoint x="1880" y="740" as="sourcePoint"/>
                        <mxPoint x="1930" y="690" as="targetPoint"/>
                    </mxGeometry>
                </mxCell>
                <mxCell id="181" value="1:1" style="text;html=1;strokeColor=none;fillColor=none;align=center;verticalAlign=middle;whiteSpace=wrap;rounded=0;" vertex="1" parent="1">
                    <mxGeometry x="2040" y="180" width="40" height="20" as="geometry"/>
                </mxCell>
                <mxCell id="182" value="N:1" style="text;html=1;strokeColor=none;fillColor=none;align=center;verticalAlign=middle;whiteSpace=wrap;rounded=0;" vertex="1" parent="1">
                    <mxGeometry x="1930" y="40" width="40" height="20" as="geometry"/>
                </mxCell>
                <mxCell id="183" value="N:1" style="text;html=1;strokeColor=none;fillColor=none;align=center;verticalAlign=middle;whiteSpace=wrap;rounded=0;" vertex="1" parent="1">
                    <mxGeometry x="2040" y="413" width="40" height="20" as="geometry"/>
                </mxCell>
                <mxCell id="185" value="Roles usuario" style="rounded=0;whiteSpace=wrap;html=1;" vertex="1" parent="1">
                    <mxGeometry x="1550" y="360" width="120" height="40" as="geometry"/>
                </mxCell>
                <mxCell id="187" value="Tiene" style="rhombus;whiteSpace=wrap;html=1;" vertex="1" parent="1">
                    <mxGeometry x="1645" y="460" width="120" height="40" as="geometry"/>
                </mxCell>
                <mxCell id="188" value="" style="endArrow=none;html=1;fontColor=#f0f0f0;exitX=0.5;exitY=1;exitDx=0;exitDy=0;entryX=0.5;entryY=0;entryDx=0;entryDy=0;" edge="1" parent="1" source="185" target="187">
                    <mxGeometry width="50" height="50" relative="1" as="geometry">
                        <mxPoint x="1850" y="480" as="sourcePoint"/>
                        <mxPoint x="1900" y="430" as="targetPoint"/>
                    </mxGeometry>
                </mxCell>
                <mxCell id="189" value="" style="endArrow=none;html=1;fontColor=#f0f0f0;exitX=0.5;exitY=1;exitDx=0;exitDy=0;" edge="1" parent="1" source="187">
                    <mxGeometry width="50" height="50" relative="1" as="geometry">
                        <mxPoint x="1850" y="470" as="sourcePoint"/>
                        <mxPoint x="2060" y="690" as="targetPoint"/>
                    </mxGeometry>
                </mxCell>
                <mxCell id="190" value="genero" style="ellipse;whiteSpace=wrap;html=1;" vertex="1" parent="1">
                    <mxGeometry x="1760" y="413" width="110" height="40" as="geometry"/>
                </mxCell>
                <mxCell id="191" value="id" style="ellipse;whiteSpace=wrap;html=1;" vertex="1" parent="1">
                    <mxGeometry x="1754" y="360" width="110" height="40" as="geometry"/>
                </mxCell>
                <mxCell id="192" value="" style="endArrow=none;html=1;fontColor=#f0f0f0;entryX=0;entryY=0.5;entryDx=0;entryDy=0;exitX=1;exitY=0.5;exitDx=0;exitDy=0;" edge="1" parent="1" source="185" target="191">
                    <mxGeometry width="50" height="50" relative="1" as="geometry">
                        <mxPoint x="1660" y="430" as="sourcePoint"/>
                        <mxPoint x="1710" y="380" as="targetPoint"/>
                    </mxGeometry>
                </mxCell>
                <mxCell id="193" value="" style="endArrow=none;html=1;fontColor=#f0f0f0;exitX=0.5;exitY=0;exitDx=0;exitDy=0;entryX=0;entryY=0.5;entryDx=0;entryDy=0;" edge="1" parent="1" source="187" target="190">
                    <mxGeometry width="50" height="50" relative="1" as="geometry">
                        <mxPoint x="2010" y="520" as="sourcePoint"/>
                        <mxPoint x="2060" y="470" as="targetPoint"/>
                    </mxGeometry>
                </mxCell>
                <mxCell id="194" value="N : N" style="text;html=1;strokeColor=none;fillColor=none;align=center;verticalAlign=middle;whiteSpace=wrap;rounded=0;" vertex="1" parent="1">
                    <mxGeometry x="1780" y="470" width="40" height="20" as="geometry"/>
                </mxCell>
            </root>
        </mxGraphModel>
    </diagram>
</mxfile>